<mxfile host="app.diagrams.net" agent="Mozilla/5.0 (Macintosh; Intel Mac OS X 10_15_7) AppleWebKit/537.36 (KHTML, like Gecko) Chrome/128.0.0.0 Safari/537.36" version="24.7.16">
  <diagram name="第 1 页" id="-QxioWILbelmy_h1gT9l">
    <mxGraphModel dx="2474" dy="865" grid="1" gridSize="10" guides="1" tooltips="1" connect="1" arrows="1" fold="1" page="1" pageScale="1" pageWidth="827" pageHeight="1169" math="0" shadow="0">
      <root>
        <mxCell id="0" />
        <mxCell id="1" parent="0" />
        <mxCell id="ODpLYdQKGzDgVupv5lR0-4" value="" style="edgeStyle=orthogonalEdgeStyle;rounded=0;orthogonalLoop=1;jettySize=auto;html=1;" edge="1" parent="1" source="ODpLYdQKGzDgVupv5lR0-2" target="ODpLYdQKGzDgVupv5lR0-3">
          <mxGeometry relative="1" as="geometry" />
        </mxCell>
        <mxCell id="ODpLYdQKGzDgVupv5lR0-17" value="传统的文本解析" style="edgeLabel;html=1;align=center;verticalAlign=middle;resizable=0;points=[];" vertex="1" connectable="0" parent="ODpLYdQKGzDgVupv5lR0-4">
          <mxGeometry x="-0.283" y="1" relative="1" as="geometry">
            <mxPoint as="offset" />
          </mxGeometry>
        </mxCell>
        <mxCell id="ODpLYdQKGzDgVupv5lR0-20" value="" style="edgeStyle=orthogonalEdgeStyle;rounded=0;orthogonalLoop=1;jettySize=auto;html=1;" edge="1" parent="1" source="ODpLYdQKGzDgVupv5lR0-2" target="ODpLYdQKGzDgVupv5lR0-19">
          <mxGeometry relative="1" as="geometry">
            <Array as="points">
              <mxPoint x="930" y="195" />
            </Array>
          </mxGeometry>
        </mxCell>
        <mxCell id="ODpLYdQKGzDgVupv5lR0-21" value="通过OCR" style="edgeLabel;html=1;align=center;verticalAlign=middle;resizable=0;points=[];" vertex="1" connectable="0" parent="ODpLYdQKGzDgVupv5lR0-20">
          <mxGeometry x="0.0551" y="-2" relative="1" as="geometry">
            <mxPoint as="offset" />
          </mxGeometry>
        </mxCell>
        <mxCell id="ODpLYdQKGzDgVupv5lR0-26" value="" style="edgeStyle=orthogonalEdgeStyle;rounded=0;orthogonalLoop=1;jettySize=auto;html=1;" edge="1" parent="1" source="ODpLYdQKGzDgVupv5lR0-2" target="ODpLYdQKGzDgVupv5lR0-25">
          <mxGeometry relative="1" as="geometry" />
        </mxCell>
        <mxCell id="ODpLYdQKGzDgVupv5lR0-2" value="读取用户上传的文件" style="rounded=1;whiteSpace=wrap;html=1;absoluteArcSize=1;arcSize=14;strokeWidth=2;fillColor=#1ba1e2;strokeColor=#006EAF;fontColor=#ffffff;" vertex="1" parent="1">
          <mxGeometry x="300" y="170" width="170" height="50" as="geometry" />
        </mxCell>
        <mxCell id="ODpLYdQKGzDgVupv5lR0-6" value="" style="edgeStyle=orthogonalEdgeStyle;rounded=0;orthogonalLoop=1;jettySize=auto;html=1;" edge="1" parent="1" source="ODpLYdQKGzDgVupv5lR0-3" target="ODpLYdQKGzDgVupv5lR0-5">
          <mxGeometry relative="1" as="geometry" />
        </mxCell>
        <mxCell id="ODpLYdQKGzDgVupv5lR0-8" value="" style="edgeStyle=orthogonalEdgeStyle;rounded=0;orthogonalLoop=1;jettySize=auto;html=1;" edge="1" parent="1" source="ODpLYdQKGzDgVupv5lR0-3" target="ODpLYdQKGzDgVupv5lR0-7">
          <mxGeometry relative="1" as="geometry" />
        </mxCell>
        <mxCell id="ODpLYdQKGzDgVupv5lR0-9" value="" style="edgeStyle=orthogonalEdgeStyle;rounded=0;orthogonalLoop=1;jettySize=auto;html=1;" edge="1" parent="1" source="ODpLYdQKGzDgVupv5lR0-3" target="ODpLYdQKGzDgVupv5lR0-7">
          <mxGeometry relative="1" as="geometry" />
        </mxCell>
        <mxCell id="ODpLYdQKGzDgVupv5lR0-11" value="" style="edgeStyle=orthogonalEdgeStyle;rounded=0;orthogonalLoop=1;jettySize=auto;html=1;" edge="1" parent="1" source="ODpLYdQKGzDgVupv5lR0-3" target="ODpLYdQKGzDgVupv5lR0-10">
          <mxGeometry relative="1" as="geometry" />
        </mxCell>
        <mxCell id="ODpLYdQKGzDgVupv5lR0-14" value="" style="edgeStyle=orthogonalEdgeStyle;rounded=0;orthogonalLoop=1;jettySize=auto;html=1;" edge="1" parent="1" source="ODpLYdQKGzDgVupv5lR0-3" target="ODpLYdQKGzDgVupv5lR0-13">
          <mxGeometry relative="1" as="geometry" />
        </mxCell>
        <mxCell id="ODpLYdQKGzDgVupv5lR0-16" value="" style="edgeStyle=orthogonalEdgeStyle;rounded=0;orthogonalLoop=1;jettySize=auto;html=1;" edge="1" parent="1" source="ODpLYdQKGzDgVupv5lR0-3" target="ODpLYdQKGzDgVupv5lR0-15">
          <mxGeometry relative="1" as="geometry" />
        </mxCell>
        <mxCell id="ODpLYdQKGzDgVupv5lR0-3" value="根据文件格式调用对应的接口" style="rhombus;whiteSpace=wrap;html=1;rounded=1;arcSize=14;strokeWidth=2;fillColor=#dae8fc;strokeColor=#6c8ebf;" vertex="1" parent="1">
          <mxGeometry x="285" y="300" width="200" height="80" as="geometry" />
        </mxCell>
        <mxCell id="ODpLYdQKGzDgVupv5lR0-5" value="pptx" style="whiteSpace=wrap;html=1;rounded=1;arcSize=14;strokeWidth=2;fillColor=#1ba1e2;fontColor=#ffffff;strokeColor=#006EAF;" vertex="1" parent="1">
          <mxGeometry x="325" y="480" width="120" height="60" as="geometry" />
        </mxCell>
        <mxCell id="ODpLYdQKGzDgVupv5lR0-7" value="URL" style="whiteSpace=wrap;html=1;rounded=1;arcSize=14;strokeWidth=2;fillColor=#1ba1e2;fontColor=#ffffff;strokeColor=#006EAF;" vertex="1" parent="1">
          <mxGeometry x="500" y="480" width="120" height="60" as="geometry" />
        </mxCell>
        <mxCell id="ODpLYdQKGzDgVupv5lR0-10" value="PDF" style="whiteSpace=wrap;html=1;rounded=1;arcSize=14;strokeWidth=2;fillColor=#1ba1e2;fontColor=#ffffff;strokeColor=#006EAF;" vertex="1" parent="1">
          <mxGeometry x="20" y="480" width="120" height="60" as="geometry" />
        </mxCell>
        <mxCell id="ODpLYdQKGzDgVupv5lR0-13" value="...." style="whiteSpace=wrap;html=1;rounded=1;arcSize=14;strokeWidth=2;fillColor=#1ba1e2;fontColor=#ffffff;strokeColor=#006EAF;" vertex="1" parent="1">
          <mxGeometry x="670" y="480" width="120" height="60" as="geometry" />
        </mxCell>
        <mxCell id="ODpLYdQKGzDgVupv5lR0-15" value="docx" style="whiteSpace=wrap;html=1;rounded=1;arcSize=14;strokeWidth=2;fillColor=#1ba1e2;fontColor=#ffffff;strokeColor=#006EAF;" vertex="1" parent="1">
          <mxGeometry x="160" y="480" width="120" height="60" as="geometry" />
        </mxCell>
        <mxCell id="ODpLYdQKGzDgVupv5lR0-23" value="" style="edgeStyle=orthogonalEdgeStyle;rounded=0;orthogonalLoop=1;jettySize=auto;html=1;" edge="1" parent="1" source="ODpLYdQKGzDgVupv5lR0-19" target="ODpLYdQKGzDgVupv5lR0-22">
          <mxGeometry relative="1" as="geometry" />
        </mxCell>
        <mxCell id="ODpLYdQKGzDgVupv5lR0-19" value="OCR文本解析" style="whiteSpace=wrap;html=1;rounded=1;arcSize=14;strokeWidth=2;fillColor=#1ba1e2;fontColor=#ffffff;strokeColor=#006EAF;" vertex="1" parent="1">
          <mxGeometry x="870" y="270" width="120" height="60" as="geometry" />
        </mxCell>
        <mxCell id="ODpLYdQKGzDgVupv5lR0-22" value="保存切片位置信息和对应的解析文本结果" style="whiteSpace=wrap;html=1;rounded=1;arcSize=14;strokeWidth=2;fillColor=#1ba1e2;fontColor=#ffffff;strokeColor=#006EAF;" vertex="1" parent="1">
          <mxGeometry x="870" y="480" width="120" height="60" as="geometry" />
        </mxCell>
        <mxCell id="ODpLYdQKGzDgVupv5lR0-25" value="直接调用langchain封装方法，来进行文件解析和分块" style="whiteSpace=wrap;html=1;rounded=1;arcSize=14;strokeWidth=2;fillColor=#1ba1e2;strokeColor=#006EAF;fontColor=#ffffff;" vertex="1" parent="1">
          <mxGeometry x="-210" y="480" width="120" height="60" as="geometry" />
        </mxCell>
        <mxCell id="ODpLYdQKGzDgVupv5lR0-29" value="文本解析质量评估" style="rounded=1;whiteSpace=wrap;html=1;fillColor=#1ba1e2;fontColor=#ffffff;strokeColor=#006EAF;" vertex="1" parent="1">
          <mxGeometry x="-210" y="590" width="1200" height="60" as="geometry" />
        </mxCell>
      </root>
    </mxGraphModel>
  </diagram>
</mxfile>
